<svg xmlns="http://www.w3.org/2000/svg" viewBox="0 0 700 450">
  <!-- Continental US outline - more realistic -->
  <path d="M 85 95 
           L 90 90 L 95 92 L 100 88 
           L 115 90 L 125 95 L 135 93 
           L 150 95 L 165 92 L 180 94
           L 220 91 L 260 89 L 300 90
           L 340 88 L 380 90 L 420 92
           L 450 95 L 470 98 L 485 100
           L 510 105 L 530 110 L 545 108
           L 560 112 L 575 115 L 590 112
           L 600 118 L 608 125 L 615 130
           L 620 138 L 618 145 L 622 152
           L 620 160 L 615 168 L 618 175
           L 612 182 L 608 190 L 600 195
           L 592 200 L 585 210 L 575 215
           L 565 222 L 555 228 L 560 238
           L 555 248 L 545 255 L 535 260
           L 520 262 L 510 270 L 498 280
           L 505 290 L 510 302 L 505 315
           L 495 325 L 485 320 L 478 310
           L 470 302 L 460 295 L 448 290
           L 435 288 L 420 290 L 405 295
           L 385 298 L 365 300 L 345 298
           L 320 302 L 295 310 L 275 318
           L 260 330 L 250 342 L 245 355
           L 238 365 L 225 368 L 215 362
           L 210 350 L 205 338 L 195 330
           L 180 328 L 165 332 L 150 330
           L 140 322 L 135 310 L 140 298
           L 148 288 L 145 278 L 138 270
           L 130 265 L 125 255 L 130 245
           L 125 235 L 118 228 L 112 220
           L 105 212 L 100 200 L 95 188
           L 90 175 L 88 162 L 85 150
           L 82 138 L 80 125 L 82 112
           L 85 100 Z" 
        fill="#f5f5f5" 
        stroke="#333" 
        stroke-width="2.5"/>
  
  <!-- Florida peninsula -->
  <path d="M 535 260 
           L 545 272 L 555 285 L 560 300
           L 558 315 L 550 328 L 540 335
           L 528 330 L 520 318 L 515 305
           L 510 290 L 510 275 L 515 265"
        fill="#f5f5f5" 
        stroke="#333" 
        stroke-width="2.5"/>

  <!-- Cities (30 red dots) -->
  <!-- West Coast -->
  <circle cx="95" cy="120" r="6" fill="#c0392b"/>
  <circle cx="92" cy="160" r="6" fill="#c0392b"/>
  <circle cx="100" cy="195" r="6" fill="#c0392b"/>
  <circle cx="115" cy="235" r="6" fill="#c0392b"/>
  
  <!-- Pacific Northwest / Mountain -->
  <circle cx="130" cy="105" r="6" fill="#c0392b"/>
  <circle cx="175" cy="115" r="6" fill="#c0392b"/>
  <circle cx="160" cy="160" r="6" fill="#c0392b"/>
  <circle cx="155" cy="210" r="6" fill="#c0392b"/>
  <circle cx="145" cy="260" r="6" fill="#c0392b"/>
  
  <!-- Southwest -->
  <circle cx="200" cy="280" r="6" fill="#c0392b"/>
  <circle cx="250" cy="300" r="6" fill="#c0392b"/>
  <circle cx="220" cy="240" r="6" fill="#c0392b"/>
  
  <!-- Central -->
  <circle cx="280" cy="180" r="6" fill="#c0392b"/>
  <circle cx="320" cy="220" r="6" fill="#c0392b"/>
  <circle cx="300" cy="260" r="6" fill="#c0392b"/>
  <circle cx="350" cy="280" r="6" fill="#c0392b"/>
  
  <!-- Texas area -->
  <circle cx="320" cy="320" r="6" fill="#c0392b"/>
  <circle cx="280" cy="340" r="6" fill="#c0392b"/>
  
  <!-- Midwest -->
  <circle cx="380" cy="160" r="6" fill="#c0392b"/>
  <circle cx="420" cy="190" r="6" fill="#c0392b"/>
  <circle cx="450" cy="220" r="6" fill="#c0392b"/>
  <circle cx="400" cy="250" r="6" fill="#c0392b"/>
  
  <!-- Southeast -->
  <circle cx="480" cy="260" r="6" fill="#c0392b"/>
  <circle cx="520" cy="280" r="6" fill="#c0392b"/>
  <circle cx="545" cy="310" r="6" fill="#c0392b"/>
  
  <!-- Northeast -->
  <circle cx="520" cy="150" r="6" fill="#c0392b"/>
  <circle cx="560" cy="165" r="6" fill="#c0392b"/>
  <circle cx="590" cy="145" r="6" fill="#c0392b"/>
  <circle cx="600" cy="180" r="6" fill="#c0392b"/>
  
  <!-- Route connecting cities (blue lines) -->
  <path d="M 130 105 
           L 95 120 
           L 92 160 
           L 100 195 
           L 115 235 
           L 145 260 
           L 155 210 
           L 160 160 
           L 175 115 
           L 280 180 
           L 220 240 
           L 200 280 
           L 250 300 
           L 280 340 
           L 320 320 
           L 350 280 
           L 300 260 
           L 320 220 
           L 380 160 
           L 420 190 
           L 400 250 
           L 450 220 
           L 480 260 
           L 520 280 
           L 545 310 
           L 600 180 
           L 560 165 
           L 590 145 
           L 520 150 
           L 380 160"
        fill="none" 
        stroke="#2980b9" 
        stroke-width="2.5"
        stroke-linecap="round"
        stroke-linejoin="round"/>
  
  <!-- Label -->
  <text x="350" y="420" text-anchor="middle" font-family="Arial, sans-serif" font-size="18" fill="#333">30 cities — What is the shortest route?</text>
</svg>